<svg id="Logo" xmlns="http://www.w3.org/2000/svg" viewBox="0 0 900 400"><defs><style>.cls-1{fill:#7f7f7f;}.cls-2,.cls-4{fill:#2c2735;}.cls-3{fill:#4e0be0;}.cls-4{stroke:#2c2735;stroke-miterlimit:10;stroke-width:2.57px;}</style></defs><title>logo</title><g id="Logo-2" data-name="Logo"><path class="cls-1" d="M223.21,218s27.4-11,55.9-37.74l.77,6.42s-33.74,26.16-56.67,36.46"/><path class="cls-2" d="M250.61,211.63l-.33,7.3s69.85-45.21,85-56.9l.86-12S288.17,188.46,250.61,211.63Z"/><path class="cls-3" d="M194,250l.73-9.19s36.27-2.37,69.44-24.4l56-36.17-1,16-49.91,28.29C270.92,223.56,229.62,246.06,194,250Z"/></g><g id="Text"><path class="cls-4" d="M356.9,184.33c2.87-2.12,8.8-5,13.47-5,3.92,0,5.83,2.55,6,5,3.18-2.12,9.33-5,14.31-5,5.3,0,6.57,3.23,6.57,6.2l-3.6,32h4.88l-.43,4.84a22.47,22.47,0,0,1-8.05,1.7c-2.76,0-5.52-.6-5.52-4.5l3.71-33.47H376.52L373,223.48h-8.91L368,186.11H357l-3.61,37.37h-9.22l4.24-43.31h8.91Z"/><path class="cls-4" d="M439.59,180.17c-2.75,12.23-10.17,37.54-15.47,49.68-4.56,10.19-7.32,11.64-12.3,11.64a22.58,22.58,0,0,1-7.53-1.45v-4.41h8.48A74.53,74.53,0,0,0,420,220.76a15.35,15.35,0,0,1-7.84,2.72c-4.25,0-4.67-4-4.67-5.94V180.17H417l-1.8,37.37h5.62c2.44-5.52,8.16-30.24,9.33-37.37Z"/><path class="cls-4" d="M463.44,198.68l2.34-18.51h8.69l-.74,5c-1.49,9.43-3.71,13.42-7.85,15.8l4.56,16.56h5.2l-.53,4.84a19,19,0,0,1-7.42,1.7c-3.82,0-5.09-1.7-5.84-5.35l-3.6-15.21-4.88,1.53-1.69,18.43H443l6.36-65h8.91l-4.45,40.17Z"/><path class="cls-4" d="M479.24,209c0-6,1.38-16.65,4.77-22.25,2.86-4.76,7.21-7.39,13.36-7.39,13.15,0,14.42,9.77,14.42,15.71,0,5.52-1.38,18.35-5.83,23.87-2.76,3.39-6.58,5.43-12.62,5.43-13.46,0-14.1-10.61-14.1-15.29Zm24.28-22.85h-13l-3.08,31.43h13Z"/><path class="cls-4" d="M518.89,209c0-6,1.38-16.65,4.77-22.25,2.86-4.76,7.21-7.39,13.36-7.39,13.14,0,14.42,9.77,14.42,15.71,0,5.52-1.38,18.35-5.83,23.87-2.76,3.39-6.58,5.43-12.62,5.43-13.46,0-14.1-10.61-14.1-15.29Zm24.28-22.85h-13l-3.08,31.43h13Z"/><path class="cls-4" d="M570,184.59a12.52,12.52,0,0,1,9.65-4.42c10,0,10.38,9.26,10.38,13.16,0,5.27-1.27,20.73-7.2,26.58-3.08,3-7,4.34-12,4.34-4.77,0-10.18-1.62-13-3.57l6.25-62.17H573Zm11.87,1.52H569.78l-3.08,31.43h12.09Z"/><path class="cls-4" d="M642.18,165.73v57.75h-8.8V206.16h-12l-5.19,17.32H607.3l18.56-57.75Zm-8.8,6h-2l-8.27,28h10.28Z"/><path class="cls-4" d="M662.32,204.63l-1.59,18.85h-9.22l5.72-57.75h14.85c14.73,0,15.16,9.34,15.16,14.19,0,6.45-1.81,24.71-19.4,24.71Zm15.59-32.36H665.4L663,198.17h12.51Z"/><path class="cls-4" d="M696.78,165.73H706l-5.72,57.75h-9.23Z"/></g></svg>