<svg id="Logo" xmlns="http://www.w3.org/2000/svg" viewBox="0 0 900 300"><defs><style>.cls-1{fill:#7f7f7f;}.cls-2,.cls-4{fill:#2c2735;}.cls-3{fill:#4e0be0;}.cls-4{stroke:#2c2735;stroke-miterlimit:10;stroke-width:1.92px;}</style></defs><title>logo</title><g id="Logo-2" data-name="Logo"><path class="cls-1" d="M279.91,163.48s20.55-8.29,41.92-28.3l.58,4.81s-25.31,19.62-42.5,27.35"/><path class="cls-2" d="M300.46,158.72l-.25,5.48S352.6,130.29,364,121.52l.65-9S328.63,141.34,300.46,158.72Z"/><path class="cls-3" d="M258,187.5l.55-6.89s27.2-1.78,52.07-18.3l42-27.13-.78,12-37.44,21.22C315.69,167.67,284.72,184.55,258,187.5Z"/></g><g id="Text"><path class="cls-4" d="M380.18,138.25c2.14-1.59,6.6-3.76,10.1-3.76a4.17,4.17,0,0,1,4.53,3.76c2.38-1.59,7-3.76,10.73-3.76,4,0,4.93,2.42,4.93,4.65l-2.7,24h3.65l-.31,3.63a16.82,16.82,0,0,1-6.05,1.28c-2.06,0-4.13-.45-4.13-3.38l2.78-25.09h-8.82l-2.63,28h-6.68l2.95-28h-8.27l-2.71,28h-6.91l3.18-32.48h6.68Z"/><path class="cls-4" d="M442.19,135.13c-2.06,9.17-7.63,28.15-11.6,37.26-3.42,7.64-5.49,8.72-9.23,8.72a16.81,16.81,0,0,1-5.64-1.08v-3.31h6.36a56.62,56.62,0,0,0,5.41-11.15,11.56,11.56,0,0,1-5.89,2c-3.18,0-3.5-3-3.5-4.46v-28h7.16l-1.35,28h4.21c1.83-4.14,6.12-22.67,7-28Z"/><path class="cls-4" d="M460.08,149l1.75-13.88h6.52l-.55,3.76C466.68,146,465,149,461.91,150.73l3.42,12.42h3.9l-.4,3.63a14.2,14.2,0,0,1-5.57,1.28c-2.86,0-3.81-1.28-4.37-4l-2.7-11.4-3.66,1.15-1.27,13.82h-6.52l4.77-48.72h6.68L452.85,149Z"/><path class="cls-4" d="M471.93,156.72c0-4.52,1-12.48,3.58-16.69a10.93,10.93,0,0,1,10-5.54c9.86,0,10.81,7.33,10.81,11.78,0,4.14-1,13.76-4.37,17.9-2.07,2.55-4.93,4.08-9.46,4.08-10.1,0-10.58-8-10.58-11.47Zm18.21-17.13h-9.78l-2.31,23.56h9.78Z"/><path class="cls-4" d="M501.67,156.72c0-4.52,1-12.48,3.58-16.69a10.9,10.9,0,0,1,10-5.54c9.86,0,10.82,7.33,10.82,11.78,0,4.14-1,13.76-4.38,17.9-2.06,2.55-4.93,4.08-9.46,4.08-10.1,0-10.57-8-10.57-11.47Zm18.21-17.13H510.1l-2.31,23.56h9.78Z"/><path class="cls-4" d="M540,138.44a9.4,9.4,0,0,1,7.24-3.31c7.47,0,7.79,6.94,7.79,9.87,0,3.95-1,15.54-5.41,19.94-2.3,2.23-5.25,3.24-9,3.24a19.4,19.4,0,0,1-9.78-2.67l4.69-46.62h6.68Zm8.91,1.15h-9.07l-2.3,23.56h9.06Z"/><path class="cls-4" d="M594.14,124.3v43.31h-6.6v-13h-9l-3.89,13H568l13.91-43.31Zm-6.6,4.46H586l-6.21,21h7.72Z"/><path class="cls-4" d="M609.24,153.47l-1.19,14.14h-6.92l4.3-43.31h11.13c11.05,0,11.37,7,11.37,10.64,0,4.84-1.35,18.53-14.55,18.53Zm11.69-24.27h-9.38l-1.83,19.43h9.38Z"/><path class="cls-4" d="M635.08,124.3H642l-4.29,43.31h-6.92Z"/></g></svg>